<?xml version="1.0" standalone="no"?>
<!DOCTYPE svg PUBLIC "-//W3C//DTD SVG 20010904//EN"
 "http://www.w3.org/TR/2001/REC-SVG-20010904/DTD/svg10.dtd">
<svg version="1.0" xmlns="http://www.w3.org/2000/svg"
 width="141.000000pt" height="74.000000pt" viewBox="0 0 141.000000 74.000000"
 preserveAspectRatio="xMidYMid meet">
<metadata>
Created by potrace 1.16, written by Peter Selinger 2001-2019
</metadata>
<g transform="translate(0.000000,74.000000) scale(0.100000,-0.100000)"
fill="#000000" stroke="none">
<path d="M440 623 c-41 -29 -58 -54 -96 -145 -32 -78 -40 -88 -63 -89 -23 -2
-23 -2 -4 -6 l22 -4 -21 -43 -21 -44 -69 -4 c-78 -6 -121 -30 -125 -69 l-3
-24 10 23 c12 29 66 52 121 52 33 0 40 -3 35 -16 -3 -9 -6 -17 -6 -19 0 -3
-17 -16 -37 -30 -21 -14 -32 -25 -25 -25 7 0 32 18 56 40 l44 41 49 -12 c64
-15 130 -54 139 -82 4 -12 6 -38 5 -57 -3 -40 15 -31 21 10 2 20 13 29 60 45
31 10 61 16 65 11 11 -11 -81 -93 -110 -99 -20 -4 -20 -4 3 -6 36 -2 85 32
116 79 15 23 40 48 56 56 15 8 28 17 28 20 0 2 -9 0 -20 -6 -11 -6 -20 -9 -20
-7 0 14 52 153 62 164 10 13 9 15 -7 12 -11 -3 -33 -29 -53 -64 -38 -69 -66
-100 -80 -91 -14 8 -1 54 32 112 21 38 23 45 9 42 -18 -3 -51 -52 -59 -90 -3
-12 -8 -33 -11 -45 -4 -16 1 -23 18 -28 19 -6 29 -1 56 30 37 43 39 42 17 -13
-14 -36 -20 -41 -80 -57 -35 -9 -67 -21 -69 -26 -3 -4 -25 12 -49 36 -29 28
-64 51 -105 65 -33 13 -61 25 -61 27 0 2 12 24 26 49 19 32 38 49 72 64 26 12
62 35 80 53 66 63 93 155 53 177 -26 14 -32 13 -61 -7z m60 -46 c0 -47 -50
-120 -103 -151 -24 -14 -49 -26 -56 -26 -18 0 67 156 101 185 41 35 58 32 58
-8z"/>
<path d="M1254 599 c-4 -7 -26 -8 -63 -4 -105 12 -260 -31 -301 -83 -24 -30
-26 -85 -4 -106 17 -18 62 -32 71 -22 4 3 -3 6 -15 6 -52 0 -68 60 -27 108 38
46 116 74 219 80 l89 5 -40 -54 c-22 -30 -59 -90 -83 -134 -54 -101 -84 -142
-124 -166 -25 -15 -27 -19 -11 -19 11 0 46 27 80 63 56 59 65 64 116 71 29 4
73 16 96 27 51 25 103 81 103 113 0 31 -32 70 -70 86 -24 10 -28 15 -19 26 8
10 8 14 1 14 -6 0 -14 -5 -18 -11z m35 -44 c98 -50 10 -182 -135 -202 l-46 -6
24 39 c14 21 44 72 67 112 23 39 46 72 52 72 5 0 23 -7 38 -15z"/>
</g>
</svg>
